<svg xmlns="http://www.w3.org/2000/svg" xmlns:xlink="http://www.w3.org/1999/xlink" width="500" zoomAndPan="magnify" viewBox="0 0 375 225" height="300" preserveAspectRatio="xMidYMid meet" version="1.0"><defs><clipPath id="dd5a3da1f9"><path d="M 22.5 49.457031 L 148.589844 49.457031 L 148.589844 175.542969 L 22.5 175.542969 Z M 22.5 49.457031 " clip-rule="nonzero"/></clipPath><clipPath id="2665c6f461"><path d="M 85.542969 49.457031 C 50.726562 49.457031 22.5 77.679688 22.5 112.5 C 22.5 147.320312 50.726562 175.542969 85.542969 175.542969 C 120.363281 175.542969 148.589844 147.320312 148.589844 112.5 C 148.589844 77.679688 120.363281 49.457031 85.542969 49.457031 Z M 85.542969 49.457031 " clip-rule="nonzero"/></clipPath></defs><g clip-path="url(#dd5a3da1f9)"><g clip-path="url(#2665c6f461)"><path fill="#5b9999" d="M 22.5 49.457031 L 148.589844 49.457031 L 148.589844 175.542969 L 22.5 175.542969 Z M 22.5 49.457031 " fill-opacity="1" fill-rule="nonzero"/></g></g><path stroke-linecap="round" transform="matrix(0.750461, -0.00422808, 0.00422541, 0.749988, 185.285896, 130.032602)" fill="none" stroke-linejoin="miter" d="M 16.500086 16.497728 L 206.362466 16.500356 " stroke="#000000" stroke-width="33" stroke-opacity="1" stroke-miterlimit="4"/></svg>